<svg width="48" height="48" viewBox="0 0 48 48" fill="none" xmlns="http://www.w3.org/2000/svg">
<path d="M33.8458 38.4403C40.9589 40.3561 37.582 31.2249 33.1992 27.9033C40.8152 27.9033 46.7786 20.24 39.3423 19.6014C45.162 14.1733 34.4925 13.2154 29.6427 17.047C32.2292 9.3837 26.0861 2.35905 23.8229 8.10652C20.9131 2.6784 15.74 9.38372 17.6799 17.047C12.1834 11.6188 2.80717 16.4084 8.62693 19.6014C1.51384 20.5593 6.68696 27.9033 14.4466 27.9033C7.98022 32.0542 8.62693 40.6754 13.8 38.4403C13.8 46.1035 22.2063 39.7175 23.8229 34.928C25.7628 42.2719 34.4925 43.8684 33.8458 38.4403Z" fill="#F791AC"/>
<path d="M23.1404 18.7721C23.1404 19.1878 23.442 19.5339 23.8409 19.6086V21.1679L23.7056 23.1729L22.1743 21.8497L21.4826 21.1665C21.5766 21.0301 21.6315 20.8653 21.6315 20.6879C21.6315 20.2177 21.2455 19.8364 20.7694 19.8364C20.2932 19.8364 19.9072 20.2177 19.9072 20.6879C19.9072 21.1582 20.2932 21.5394 20.7694 21.5394C20.949 21.5394 21.1159 21.4851 21.254 21.3923L21.9457 22.0754L23.2857 23.5877L21.2554 23.7213H19.6765C19.6008 23.3273 19.2504 23.0295 18.8294 23.0295C18.3533 23.0295 17.9673 23.4107 17.9673 23.8809C17.9673 24.3512 18.3533 24.7324 18.8294 24.7324C19.2504 24.7324 19.6008 24.4345 19.6765 24.0406H21.2554L23.2857 24.1742L21.9457 25.6864L21.254 26.3696C21.1159 26.2768 20.949 26.2225 20.7694 26.2225C20.2932 26.2225 19.9072 26.6037 19.9072 27.074C19.9072 27.5442 20.2932 27.9254 20.7694 27.9254C21.2455 27.9254 21.6315 27.5442 21.6315 27.074C21.6315 26.8965 21.5766 26.7318 21.4826 26.5954L22.1743 25.9122L23.7056 24.5889L23.8409 26.5939V28.1532C23.442 28.228 23.1404 28.5741 23.1404 28.9898C23.1404 29.46 23.5264 29.8412 24.0026 29.8412C24.4787 29.8412 24.8647 29.46 24.8647 28.9898C24.8647 28.5741 24.5631 28.228 24.1642 28.1532V26.5939L24.2995 24.5889L25.8308 25.9122L26.5225 26.5954C26.4285 26.7318 26.3736 26.8965 26.3736 27.074C26.3736 27.5442 26.7596 27.9254 27.2358 27.9254C27.7119 27.9254 28.0979 27.5442 28.0979 27.074C28.0979 26.6037 27.7119 26.2225 27.2358 26.2225C27.0561 26.2225 26.8893 26.2768 26.7512 26.3696L26.0594 25.6864L24.7195 24.1742L26.7497 24.0406H28.3286C28.4043 24.4345 28.7548 24.7324 29.1757 24.7324C29.6518 24.7324 30.0379 24.3512 30.0379 23.8809C30.0379 23.4107 29.6518 23.0295 29.1757 23.0295C28.7548 23.0295 28.4043 23.3273 28.3286 23.7213H26.7497L24.7195 23.5877L26.0594 22.0754L26.7512 21.3923C26.8893 21.4851 27.0561 21.5394 27.2358 21.5394C27.7119 21.5394 28.0979 21.1582 28.0979 20.6879C28.0979 20.2177 27.7119 19.8364 27.2358 19.8364C26.7596 19.8364 26.3736 20.2177 26.3736 20.6879C26.3736 20.8653 26.4285 21.0301 26.5225 21.1665L25.8308 21.8497L24.2995 23.1729L24.1642 21.1679V19.6086C24.5631 19.5339 24.8647 19.1878 24.8647 18.7721C24.8647 18.3018 24.4787 17.9206 24.0026 17.9206C23.5264 17.9206 23.1404 18.3018 23.1404 18.7721Z" fill="white"/>
</svg>